HIERARCHY
ROOT Hips
{
	OFFSET	0.00	0.00	0.00
	CHANNELS 6 Xposition Yposition Zposition Zrotation Xrotation Yrotation
	JOINT LeftUpLeg
	{
		OFFSET	 0.126116	-0.065224	 0.014019
		CHANNELS 3 Zrotation Xrotation Yrotation
		JOINT LeftLeg
		{
			OFFSET	 0.000000	 0.569914	 0.000000
			CHANNELS 3 Zrotation Xrotation Yrotation
			JOINT LeftFoot
			{
				OFFSET	 0.000000	 0.544423	 0.000000
				CHANNELS 3 Zrotation Xrotation Yrotation
				JOINT LeftToeBase
				{
					OFFSET	 0.000000	 0.207117	 0.000000
					CHANNELS 3 Zrotation Xrotation Yrotation
					End Site
					{
						OFFSET	 0.000000	 0.207117	 0.000000
					}
				}
			}
		}
	}
	JOINT RightUpLeg
	{
		OFFSET	-0.124023	-0.065224	 0.008373
		CHANNELS 3 Zrotation Xrotation Yrotation
		JOINT RightLeg
		{
			OFFSET	 0.000000	 0.570047	 0.000000
			CHANNELS 3 Zrotation Xrotation Yrotation
			JOINT RightFoot
			{
				OFFSET	 0.000000	 0.544354	 0.000000
				CHANNELS 3 Zrotation Xrotation Yrotation
				JOINT RightToeBase
				{
					OFFSET	 0.000000	 0.207540	 0.000000
					CHANNELS 3 Zrotation Xrotation Yrotation
					End Site
					{
						OFFSET	 0.000000	 0.207540	 0.000000
					}
				}
			}
		}
	}
	JOINT Spine
	{
		OFFSET	 0.000184	 0.117403	 0.007763
		CHANNELS 3 Zrotation Xrotation Yrotation
		JOINT Spine1
		{
			OFFSET	 0.000000	 0.137269	 0.000000
			CHANNELS 3 Zrotation Xrotation Yrotation
			JOINT Spine2
			{
				OFFSET	 0.000000	 0.156879	 0.000000
				CHANNELS 3 Zrotation Xrotation Yrotation
				JOINT LeftShoulder
				{
					OFFSET	 0.080501	 0.160143	 0.002496
					CHANNELS 3 Zrotation Xrotation Yrotation
					JOINT LeftArm
					{
						OFFSET	 0.000000	 0.164363	 0.000000
						CHANNELS 3 Zrotation Xrotation Yrotation
						JOINT LeftForeArm
						{
							OFFSET	 0.000000	 0.364576	 0.000000
							CHANNELS 3 Zrotation Xrotation Yrotation
							JOINT LeftHand
							{
								OFFSET	 0.000000	 0.360812	 0.000000
								CHANNELS 3 Zrotation Xrotation Yrotation
								JOINT LeftHandIndex1
								{
									OFFSET	 0.000000	 0.086006	 0.000000
									CHANNELS 3 Zrotation Xrotation Yrotation
									JOINT LeftHandIndex2
									{
										OFFSET	 0.000000	 0.047237	 0.000000
										CHANNELS 3 Zrotation Xrotation Yrotation
										JOINT LeftHandIndex3
										{
											OFFSET	-0.004284	 0.038165	 0.000551
											CHANNELS 3 Zrotation Xrotation Yrotation
											End Site
											{
												OFFSET	-0.004284	 0.038165	 0.000551
											}
										}
									}
								}
							}
						}
					}
				}
				JOINT Neck
				{
					OFFSET	 0.000000	 0.176489	 0.000000
					CHANNELS 3 Zrotation Xrotation Yrotation
					JOINT Head
					{
						OFFSET	 0.000000	 0.077941	 0.001747
						CHANNELS 3 Zrotation Xrotation Yrotation
						End Site
						{
							OFFSET	 0.000000	 0.077941	 0.001747
						}
					}
				}
				JOINT RightShoulder
				{
					OFFSET	-0.080363	 0.159706	-0.000306
					CHANNELS 3 Zrotation Xrotation Yrotation
					JOINT RightArm
					{
						OFFSET	 0.000000	 0.164196	 0.000000
						CHANNELS 3 Zrotation Xrotation Yrotation
						JOINT RightForeArm
						{
							OFFSET	 0.000000	 0.365611	 0.000000
							CHANNELS 3 Zrotation Xrotation Yrotation
							JOINT RightHand
							{
								OFFSET	 0.000000	 0.360648	 0.000000
								CHANNELS 3 Zrotation Xrotation Yrotation
								JOINT RightHandIndex1
								{
									OFFSET	 0.000000	 0.069977	 0.000000
									CHANNELS 3 Zrotation Xrotation Yrotation
									JOINT RightHandIndex2
									{
										OFFSET	 0.000000	 0.052305	 0.000000
										CHANNELS 3 Zrotation Xrotation Yrotation
										JOINT RightHandIndex3
										{
											OFFSET	 0.009002	 0.042196	 0.000782
											CHANNELS 3 Zrotation Xrotation Yrotation
											End Site
											{
												OFFSET	 0.009002	 0.042196	 0.000782
											}
										}
									}
								}
							}
						}
					}
				}
			}
		}
	}
}
MOTION
Frames:    4
Frame Time: 0.03333334
 0.930427	 1.207913	-0.127902	 5.733811	-4.010375	-39.386140	-177.260900	 11.184170	-23.896750	 4.266517	-38.900210	 6.095206	 73.019150	 48.917930	-90.870670	 1.398017	 23.660650	-7.474023	 150.239000	 25.278920	 47.172810	-4.447845	-41.982010	-3.942118	-53.395580	 49.725460	 61.175150	-1.744187	 30.408590	 3.676352	-0.365733	 6.349138	 16.889080	-6.900600	 0.168212	 4.644066	 7.779078	 6.817220	-15.447490	-108.406600	-17.658780	 100.995000	 68.083510	 18.890580	-42.605510	 6.107425	-0.208553	-0.843717	-13.196110	 9.119560	 11.572860	-6.507239	 15.578040	-6.179032	-7.213374	 8.803616	 2.149405	 4.963066	-4.014628	-0.346955	 12.298100	-8.427891	-11.163080	 1.744692	-0.341699	-48.583320	 90.151780	 0.188945	-91.810420	-17.684420	-8.577848	 75.577080	-5.907900	-0.555328	 7.465618	 27.377690	-35.303140	 48.144950	-2.904795	 16.164410	-3.436153	 14.397980	 24.015750	-7.079583	-8.239867	-2.131385	 0.447455
 0.984694	 1.248842	-0.106636	 1.611322	-4.687566	-39.866530	-178.811400	 2.879319	-24.137870	 2.644811	-26.587230	 2.013377	 65.425830	 48.922100	-78.739910	 1.398039	 23.660620	-7.474037	 162.139800	 17.355370	 29.519280	-2.132990	-23.357440	-0.719380	-39.473450	 45.574390	 47.597000	-1.287144	 27.959390	 3.434257	 0.503215	 5.110161	-4.919713	-4.354381	-0.783653	 3.475254	 3.100563	 3.712940	-16.425170	-111.155600	-27.169690	 102.793500	 72.616200	 16.769930	-45.645810	 14.502610	-0.071840	 12.534300	-17.436000	 0.166840	 12.111550	-7.538050	 15.756070	-5.753438	-7.303596	 9.080668	 2.204452	 4.963066	-4.014628	-0.346955	 7.528655	-9.907290	-13.798830	 0.659341	 2.771329	-46.243310	 92.834620	 5.249658	-93.122100	-15.811930	-6.701550	 62.258620	-14.330060	-1.327744	-6.403963	 32.953790	-31.702760	 53.918390	-2.900871	 15.902550	-3.889159	 14.430340	 24.777120	-7.298359	-8.239867	-2.131385	 0.447455
 0.983246	 1.253576	-0.101714	 1.063800	-4.791571	-42.283540	-179.187700	 1.023775	-26.528830	 2.276467	-23.307540	 0.157942	 63.348740	 49.817580	-75.883730	 1.398025	 23.660610	-7.474032	 164.104000	 13.946400	 24.849150	-1.338938	-15.169870	 0.951416	-35.823170	 43.455690	 42.656030	-1.183285	 27.231200	 3.369034	 1.116326	 4.414069	-22.999610	-0.814393	 1.055739	 2.823977	-1.020914	 1.179324	-15.859560	-111.922100	-30.168320	 102.589200	 74.387610	 16.450280	-45.374820	 25.758340	 0.019962	 25.308350	-23.106780	 3.078086	 19.947220	-7.440791	 16.614360	-5.654777	-7.349558	 9.036994	 2.201395	 4.963066	-4.014628	-0.346955	 5.531371	-10.279340	-13.260000	-0.351358	 1.864045	-45.693530	 92.914470	 8.185209	-93.939540	-15.031420	-5.139916	 58.422200	-25.640650	-1.778674	-21.171980	 31.121440	-30.894550	 46.939180	-2.896830	 15.630860	-4.359044	 14.467470	 25.566690	-7.527013	-8.239867	-2.131385	 0.447455
 0.975654	 1.252595	-0.106597	 0.634826	-4.798572	-43.147940	-178.435900	 0.762122	-26.968310	 2.302808	-23.547840	 0.021586	 62.693790	 50.071540	-75.749060	 1.397992	 23.660620	-7.474015	 164.644900	 14.269660	 24.224750	-1.464979	-16.523070	 1.036765	-36.685570	 44.310600	 43.414960	-1.197619	 27.312710	 3.379542	 1.542935	 4.093415	-30.586690	 0.205566	 1.617875	 2.766005	-2.000771	 0.595969	-15.724700	-111.750900	-29.763830	 102.622800	 73.776530	 15.919270	-44.523560	 35.778010	 0.048329	 36.695660	-23.868530	 3.809209	 32.730770	-7.344573	 17.171010	-5.629683	-7.358505	 8.710436	 2.146133	 4.963066	-4.014628	-0.346955	 6.161955	-9.666625	-11.850040	-1.426160	 0.111573	-46.874320	 92.892650	 8.792183	-94.207110	-14.557380	-5.285379	 58.109260	-35.723630	 0.591238	-37.900060	 35.480650	-32.292890	 39.110460	-2.892768	 15.342380	-4.857812	 14.510930	 26.404680	-7.771826	-8.239867	-2.131385	 0.447455
